# xmcd CD database file
#
# Track frame offsets:
#	150
#	32261
#	52884
#	70074
#	89840
#	111114
#	131183
#	151294
#	172422
#	193450
#	217092
#	238784
#	259553
#	279572
#
# Disc length: 3996 seconds
#
# Revision: 3
# Processed by: cddbd v1.5PL3 Copyright (c) Steve Scherf et al.
# Submitted via: CDex 1.50beta9
#
DISCID=d60f9a0e
DTITLE=Neophyte - Ten Years of Terror Disc 1
DYEAR=1900
DGENRE=Hardcore
TTITLE0=DJ Neophyte and MC Ruffian - Perfect Drug
TTITLE1=Masters of Ceremony - Skullfuck
TTITLE2=Neophyte - Pillz
TTITLE3=Hardcreation - Bastared - Asshole
TTITLE4=Bodylotion - Wanna Freak You
TTITLE5=Neophyte - Hardcore Hooligans
TTITLE6=Bodylotion - Massive
TTITLE7=Neophyte - D.R.U.G.S.
TTITLE8=Hardcreation - Rulers of the Underground
TTITLE9=Masters of Ceremony - Under Control
TTITLE10=Hardcreation - Let's get 'm all
TTITLE11=Neophyte - Ballz in yer Mouth
TTITLE12=Neophyte - We are at War
TTITLE13=DJ Neophyte vs. Scott Brown - This one is for you
EXTD=
EXTT0=
EXTT1=
EXTT2=
EXTT3=
EXTT4=
EXTT5=
EXTT6=
EXTT7=
EXTT8=
EXTT9=
EXTT10=
EXTT11=
EXTT12=
EXTT13=
PLAYORDER=
